<?xml version="1.0" encoding="UTF-8"?>
<svg xmlns="http://www.w3.org/2000/svg"
     width="131.0" height="130.0"
     viewBox="0 0 131.0 130.0">

  <!-- Grid -->
  <defs>
    <pattern id="grid" width="50" height="50" patternUnits="userSpaceOnUse">
      <path d="M 50 0 L 0 0 0 50" fill="none" stroke="#eee" stroke-width="0.5"/>
    </pattern>
  </defs>
  <rect width="131.0" height="130.0" fill="url(#grid)"/>

  <!-- Rotation Axis (z-axis at r=0) -->
  <line x1="40" y1="90.0" x2="91.0" y2="90.0"
        stroke="gray" stroke-width="1" stroke-dasharray="5,5" opacity="0.5"/>
  <text x="35" y="85.0" font-size="10" fill="gray" text-anchor="end">r=0</text>

  <!-- Bounding Box (Polotovar) -->
  <rect x="40" y="40.0" width="51.0" height="50.0"
        fill="none" stroke="blue" stroke-width="1" stroke-dasharray="10,5" opacity="0.3"/>
  <text x="65.5" y="35.0" font-size="10" fill="blue" text-anchor="middle">
    Polotovar Ø20.0 × L10.2
  </text>

  <!-- Contour (Red Line) -->
  <polyline points="40,40.0 49.0,40.0 49.0,57.0 81.0,57.0 81.0,73.5 91.0,73.5 " fill="none" stroke="red" stroke-width="2"/>

  <!-- Contour Points (markers) -->
  <circle cx="40" cy="40.0" r="3" fill="red"/>
  <text x="45" y="35.0" font-size="8" fill="black">
    P0 (z=0.0, r=10.0)
  </text>
  <circle cx="49.0" cy="40.0" r="3" fill="red"/>
  <text x="54.0" y="35.0" font-size="8" fill="black">
    P1 (z=1.8, r=10.0)
  </text>
  <circle cx="49.0" cy="57.0" r="3" fill="red"/>
  <text x="54.0" y="52.0" font-size="8" fill="black">
    P2 (z=1.8, r=6.6)
  </text>
  <circle cx="81.0" cy="57.0" r="3" fill="red"/>
  <text x="86.0" y="52.0" font-size="8" fill="black">
    P3 (z=8.2, r=6.6)
  </text>
  <circle cx="81.0" cy="73.5" r="3" fill="red"/>
  <text x="86.0" y="68.5" font-size="8" fill="black">
    P4 (z=8.2, r=3.3)
  </text>
  <circle cx="91.0" cy="73.5" r="3" fill="red"/>
  <text x="96.0" y="68.5" font-size="8" fill="black">
    P5 (z=10.2, r=3.3)
  </text>

  <!-- Dimensions -->
  <text x="40" y="20" font-size="12" fill="black" font-weight="bold">
    Contour: 6 points | Range: z=[0.0, 10.2], r=[0.0, 10.0]
  </text>

</svg>